<svg version="1.1" id="Layer_1" xmlns="http://www.w3.org/2000/svg" xmlns:xlink="http://www.w3.org/1999/xlink" x="0px" y="0px"
	 width="100%" viewBox="0 0 496 496" enable-background="new 0 0 496 496" xml:space="preserve">
<path fill="#000000" opacity="1.000000" stroke="none" 
	d="
M309.558350,184.604126 
	C323.463104,162.702515 342.415375,148.415268 367.903503,144.220551 
	C385.948242,141.250809 403.822845,142.722916 420.282623,151.505920 
	C444.900421,164.642090 448.495483,191.401474 432.077148,213.055740 
	C431.140778,214.290695 430.122009,215.317139 428.422852,215.314926 
	C421.622223,215.306091 414.821564,215.311295 408.085358,215.311295 
	C407.469055,212.936981 409.133087,212.378647 410.162018,211.445145 
	C413.364075,208.539993 416.593109,205.664536 419.790924,202.754730 
	C437.343475,186.783173 428.937256,158.155823 408.082214,151.208542 
	C374.353180,139.972641 344.760406,149.848221 326.618439,183.056458 
	C321.888855,191.713821 318.376160,200.871552 316.296509,210.525299 
	C315.561462,213.937424 314.132629,215.748550 310.279633,215.446762 
	C306.186951,215.126190 302.049652,215.374695 297.171844,215.374695 
	C299.552917,203.940430 303.761139,194.159378 309.558350,184.604126 
z"/>
<path fill="#000000" opacity="1.000000" stroke="none" 
	d="
M62.232590,329.575256 
	C55.288094,314.532745 56.294880,300.195801 64.167114,286.211151 
	C69.135124,277.385742 72.287598,276.077301 82.948265,278.306000 
	C83.628601,280.227753 82.071228,281.372070 81.343040,282.784882 
	C75.986916,293.176361 73.631348,304.040070 76.624962,315.577301 
	C81.807449,335.550323 103.777802,344.014435 122.745010,333.433533 
	C135.783325,326.160034 142.536072,314.069336 147.448334,300.699768 
	C149.565323,294.938019 151.099335,288.980042 151.944489,282.846558 
	C152.177429,281.155975 151.944687,278.725037 154.333511,278.012665 
	C156.027695,278.679138 155.695190,279.898010 155.580261,281.039337 
	C153.756348,299.153076 148.490402,316.093903 136.231369,329.870850 
	C122.598770,345.191406 105.121902,351.020813 84.881706,347.337372 
	C74.573257,345.461395 67.255013,339.132629 62.232590,329.575256 
z"/>
<path fill="#000000" opacity="1.000000" stroke="none" 
	d="
M303.509827,295.342163 
	C301.206146,289.631561 298.790527,284.348816 297.840698,277.787384 
	C303.374023,277.787384 308.481293,277.637665 313.574097,277.844696 
	C316.530029,277.964874 316.362244,280.861511 316.875946,282.787140 
	C319.996826,294.485870 324.819519,305.420074 331.740173,315.333160 
	C339.801544,326.880096 349.751556,336.428589 363.186371,341.418091 
	C387.105713,350.301392 420.292847,342.071503 434.775238,315.991669 
	C435.630035,314.452240 436.124817,312.532501 438.029816,312.178284 
	C439.512512,312.503815 439.966553,313.432373 439.976746,314.449036 
	C440.050323,321.778656 440.062958,329.108978 440.079590,336.439056 
	C440.083893,338.348358 439.104584,339.566986 437.299377,340.114197 
	C412.484619,347.636627 387.222473,351.926086 361.572571,346.006165 
	C336.538239,340.228333 319.089233,324.053955 306.814392,301.937012 
	C305.683594,299.899536 304.714447,297.772308 303.509827,295.342163 
z"/>
<path fill="#000000" opacity="1.000000" stroke="none" 
	d="
M179.848495,310.057129 
	C175.916748,299.437042 172.102036,289.194366 168.026291,278.250854 
	C173.998276,277.235504 179.240189,277.531799 184.431992,277.908569 
	C186.856277,278.084564 187.016373,280.703644 187.724854,282.468140 
	C193.177231,296.047272 197.580887,310.046112 204.063553,323.213043 
	C206.724365,328.617371 209.851074,333.639160 214.313995,337.839325 
	C217.231262,340.584839 221.419678,340.366913 224.568573,342.693146 
	C221.088867,345.025818 163.591385,345.100159 159.749298,342.768799 
	C162.026810,340.871216 164.836319,341.286774 167.266113,340.879578 
	C180.048431,338.737457 184.795425,332.317383 182.469589,319.556366 
	C181.906403,316.466278 180.814377,313.472565 179.848495,310.057129 
z"/>
<path fill="#000000" opacity="1.000000" stroke="none" 
	d="
M120.739517,182.670883 
	C116.299828,193.616486 113.371307,204.748077 107.852104,214.836014 
	C107.689590,215.133057 106.688766,214.971481 106.180328,215.015045 
	C105.002800,213.244476 106.018082,211.901962 106.522552,210.568527 
	C114.467178,189.569199 122.429710,168.576599 130.433319,147.599701 
	C131.055374,145.969330 131.155884,143.498734 133.337875,143.358337 
	C135.935760,143.191193 136.097305,145.887115 136.757309,147.622162 
	C144.678940,168.446915 152.526917,189.299683 160.396545,210.144226 
	C160.922928,211.538483 161.630219,212.898865 160.848877,215.266190 
	C156.070099,215.266190 150.995605,215.409149 145.934662,215.209167 
	C143.179962,215.100311 142.931854,212.372391 142.192123,210.461456 
	C137.629547,198.675201 133.184830,186.843353 128.647339,175.047287 
	C128.006882,173.382294 127.687431,171.515121 125.713470,169.741989 
	C124.039986,174.103668 122.465057,178.208481 120.739517,182.670883 
z"/>
<path fill="#000000" opacity="1.000000" stroke="none" 
	d="
M248.889313,117.999916 
	C249.366287,104.994446 248.236694,92.413963 250.867416,80.000740 
	C250.867416,124.890518 250.867416,169.780304 250.867416,214.670074 
	C250.222061,214.674744 249.576706,214.679398 248.931351,214.684052 
	C248.403641,182.629776 248.898041,150.561386 248.889313,117.999916 
z"/>
<path fill="#000000" opacity="1.000000" stroke="none" 
	d="
M251.117325,375.000000 
	C251.041824,386.449615 250.966049,397.399261 250.890289,408.348877 
	C250.334503,408.328766 249.778717,408.308685 249.222931,408.288605 
	C249.222931,365.004944 249.222931,321.721283 249.222931,278.437622 
	C249.854309,278.432465 250.485687,278.427277 251.117065,278.422119 
	C251.117065,310.448090 251.117065,342.474030 251.117325,375.000000 
z"/>
<path fill="#000000" opacity="1.000000" stroke="none" 
	d="
M377.190216,260.386719 
	C375.180603,261.676453 373.373627,262.438568 371.364044,262.745728 
	C361.505310,264.252777 359.709808,262.756287 359.730438,252.979431 
	C359.732544,251.984818 359.520569,250.933167 359.770660,250.005829 
	C360.678375,246.640213 357.225708,241.805832 362.229065,239.959076 
	C368.383789,237.687332 376.546844,240.174240 379.579498,244.419983 
	C382.473175,248.471176 382.208252,254.484177 378.915802,258.775330 
	C378.517334,259.294708 377.973236,259.702301 377.190216,260.386719 
M370.105164,243.267517 
	C368.948639,243.269547 367.791870,243.257950 366.635590,243.276321 
	C364.006744,243.318085 362.975433,245.006607 363.434998,247.220993 
	C364.280731,251.295914 360.660004,256.609650 365.752533,259.341858 
	C369.598633,261.405334 376.278625,257.611664 377.472168,253.561630 
	C378.912354,248.674850 376.634766,245.115692 370.105164,243.267517 
z"/>
<path fill="#000000" opacity="1.000000" stroke="none" 
	d="
M339.038055,240.328094 
	C345.588806,244.249161 347.781067,249.730606 345.435394,255.551239 
	C343.144958,261.234711 337.389252,263.963531 331.090790,262.352112 
	C325.112244,260.822540 321.947021,256.077942 322.557922,249.561646 
	C323.087402,243.913849 327.322021,239.939667 333.218597,239.735291 
	C335.025665,239.672638 336.846436,240.005646 339.038055,240.328094 
M342.614685,250.720490 
	C341.763153,246.081879 339.212952,243.268753 334.289124,243.168457 
	C330.340363,243.088028 327.652039,244.990616 326.461700,248.749405 
	C325.029846,253.271011 327.658173,257.997833 332.197998,259.309174 
	C336.806427,260.640350 341.297516,257.265594 342.614685,250.720490 
z"/>
<path fill="#000000" opacity="1.000000" stroke="none" 
	d="
M195.137329,239.722229 
	C197.770798,239.740768 199.955322,239.592728 202.098236,239.826416 
	C208.497742,240.524368 212.173965,244.475922 212.315811,250.591629 
	C212.471710,257.312317 209.244736,261.302826 202.722717,262.447327 
	C202.230667,262.533661 201.734467,262.606384 201.237122,262.650970 
	C191.470566,263.526306 190.768219,262.888794 190.756592,253.112076 
	C190.752838,249.946152 190.812119,246.779556 190.764343,243.614456 
	C190.723587,240.915237 191.917511,239.567368 195.137329,239.722229 
M208.777328,251.431870 
	C208.007126,245.045151 203.565216,241.986694 197.248596,243.221893 
	C194.193634,243.819290 194.045670,246.006668 194.401169,248.115158 
	C195.042099,251.916656 192.163513,256.417969 196.551514,259.487305 
	C196.673401,259.572571 196.876480,259.536133 197.038940,259.569763 
	C202.360046,260.671631 207.171875,257.647583 208.777328,251.431870 
z"/>
<path fill="#000000" opacity="1.000000" stroke="none" 
	d="
M160.079590,239.719757 
	C170.945602,239.707474 174.690399,241.653748 176.618591,248.060349 
	C178.553925,254.490692 174.421234,261.167023 167.818512,262.269928 
	C167.491943,262.324463 167.157455,262.330902 166.826996,262.363098 
	C155.793472,263.437775 155.675171,263.334351 155.669327,252.429901 
	C155.667709,249.439774 155.766022,246.446838 155.665482,243.460327 
	C155.569931,240.622330 156.958984,239.561539 160.079590,239.719757 
M159.139145,253.302109 
	C159.505966,255.560715 158.043152,258.775574 161.641434,259.455170 
	C165.397919,260.164642 169.027893,259.353149 171.591080,256.264008 
	C173.900864,253.480209 174.446747,250.349030 172.318436,247.072220 
	C169.739151,243.101059 165.810471,242.557281 161.757355,243.368210 
	C157.630249,244.193954 159.664536,247.902847 159.159760,250.397034 
	C159.030640,251.034988 159.140854,251.721359 159.139145,253.302109 
z"/>
<path fill="#000000" opacity="1.000000" stroke="none" 
	d="
M136.700592,247.396179 
	C138.707230,251.829605 140.562439,255.914948 142.363022,260.024200 
	C142.541626,260.431854 142.386917,260.985565 142.386917,262.091553 
	C138.007004,261.958679 137.051727,256.173065 131.802994,256.645355 
	C127.014801,257.076233 124.758415,260.360596 121.777168,262.845734 
	C119.925110,260.079254 121.220222,258.672699 121.879112,257.246948 
	C124.041901,252.566971 126.290520,247.926514 128.525070,243.279968 
	C129.219498,241.835968 129.500732,239.846909 131.691559,239.969147 
	C133.726624,240.082703 134.139786,241.989288 134.890350,243.417984 
	C135.507965,244.593613 135.991074,245.839874 136.700592,247.396179 
M132.158920,246.395370 
	C128.937302,247.504150 129.118027,250.310074 128.583237,252.869446 
	C130.730698,253.842545 132.530670,254.120895 134.357330,252.745972 
	C134.644531,250.468735 133.614716,248.633163 132.158920,246.395370 
z"/>
<path fill="#000000" opacity="1.000000" stroke="none" 
	d="
M401.739075,249.529907 
	C404.659149,249.854279 407.337616,249.149902 410.221161,250.633987 
	C408.105591,253.474091 405.533661,252.864243 403.224274,252.810150 
	C401.014618,252.758423 399.212341,252.856308 399.186462,255.786255 
	C399.161957,258.563019 400.446991,259.625275 403.143890,259.653748 
	C405.893768,259.682770 408.734344,259.173248 411.545258,260.291870 
	C409.348877,262.966003 402.210205,263.862732 397.838593,262.315552 
	C394.348602,261.080383 395.848541,258.158173 395.729187,255.937119 
	C395.506317,251.788193 395.646851,247.617783 395.700714,243.457138 
	C395.717377,242.167328 395.614441,240.792267 397.140533,240.038818 
	C399.106049,239.068451 408.670929,239.866989 411.034729,241.383621 
	C409.061371,244.493332 405.944031,242.793411 403.411438,243.222702 
	C401.939789,243.472122 400.170441,243.236115 399.597870,244.956818 
	C398.995209,246.767899 399.025818,248.639572 401.739075,249.529907 
z"/>
<path fill="#000000" opacity="1.000000" stroke="none" 
	d="
M297.540649,244.270798 
	C294.321106,247.093475 292.398315,250.027374 294.198303,254.106644 
	C295.860016,257.872589 296.601166,258.062225 309.408356,258.216461 
	C308.324432,261.757965 305.369904,263.273407 300.627716,262.720123 
	C294.551666,262.011200 290.146790,257.432739 289.853394,251.521225 
	C289.597931,246.374161 293.373199,241.288605 298.407532,239.998123 
	C303.723633,238.635406 307.793579,240.053833 309.974792,244.674622 
	C305.701294,244.459106 301.746460,241.713928 297.540649,244.270798 
z"/>
<path fill="#000000" opacity="1.000000" stroke="none" 
	d="
M250.296143,249.029236 
	C253.313583,250.571106 253.140442,247.736862 254.097900,246.556366 
	C255.968079,244.250549 256.375122,240.586411 260.269012,239.894348 
	C261.669708,242.290024 259.824615,243.740417 258.967590,245.329819 
	C256.493347,249.918442 252.321198,253.814438 253.395248,259.800995 
	C253.573730,260.795776 253.075211,261.819489 251.868225,262.018890 
	C250.688431,262.213776 249.759644,261.594269 249.843597,260.434418 
	C250.362289,253.268860 245.407791,248.537079 242.265762,242.993210 
	C241.878418,242.309799 241.761887,241.472900 241.511307,240.680008 
	C244.787613,240.092438 244.787613,240.092438 250.296143,249.029236 
z"/>
</svg>