<svg version="1.1" id="Layer_1" xmlns="http://www.w3.org/2000/svg" xmlns:xlink="http://www.w3.org/1999/xlink" x="0px" y="0px"
	 width="100%" viewBox="0 0 383 387" enable-background="new 0 0 383 387" xml:space="preserve">
<path fill="#010000" opacity="1.000000" stroke="none" 
	d="
M89.999992,388.000000 
	C60.348934,388.000000 30.697870,388.000000 1.023402,388.000000 
	C1.023402,259.083435 1.023402,130.166885 1.023402,1.000000 
	C119.354111,1.000000 237.708389,1.000000 356.963501,1.124714 
	C356.782898,3.091210 355.819397,5.015022 354.603210,6.763079 
	C267.269867,132.288422 179.914810,257.798676 92.584023,383.325836 
	C91.572685,384.779541 90.854836,386.437408 89.999992,388.000000 
M148.206039,20.328411 
	C142.052414,9.943226 132.965012,4.398160 120.884872,5.368181 
	C109.143723,6.310979 97.428535,7.930322 85.825821,9.960564 
	C83.357056,10.392548 80.473625,13.475207 79.383369,16.022413 
	C58.251698,65.392899 37.226208,114.814819 22.350811,166.559158 
	C17.022043,185.095367 11.582091,203.599884 6.323884,222.155991 
	C3.938266,230.574768 6.365300,233.696182 14.991942,233.906097 
	C29.319387,234.254745 43.645973,234.642731 57.974316,234.948853 
	C65.319878,235.105804 66.875671,233.874771 68.637711,226.629593 
	C70.563675,218.710388 72.465256,210.783768 74.229019,202.827469 
	C74.799484,200.254120 75.897079,198.922073 78.691513,198.497162 
	C84.113411,197.672745 89.460152,196.362564 94.848503,195.307053 
	C104.923462,193.333511 115.005898,191.398041 125.328529,189.399643 
	C125.592880,191.073273 125.839409,192.183640 125.934700,193.306824 
	C126.906334,204.759567 127.816658,216.217590 128.821411,227.667374 
	C129.400284,234.264099 131.061310,235.809372 137.566223,235.825760 
	C152.898621,235.864380 168.231201,235.861725 183.563629,235.829865 
	C190.910370,235.814606 193.291519,233.175507 192.103134,226.011963 
	C190.169632,214.356934 188.108704,202.721542 185.961105,191.103821 
	C178.006943,148.074829 170.202362,105.016396 161.887848,62.056839 
	C159.146606,47.893421 155.889908,33.716549 148.206039,20.328411 
z"/>
<path fill="#010100" opacity="1.000000" stroke="none" 
	d="
M367.000000,0.999999 
	C372.663086,1.000000 378.326141,1.000000 383.991943,1.000000 
	C383.994629,129.914627 383.994629,258.829254 383.994629,388.000000 
	C289.645386,388.000000 195.290543,388.000000 100.312271,387.664215 
	C100.690086,385.798920 101.654160,384.243561 102.697884,382.743622 
	C189.233429,258.383728 275.780853,134.032120 362.278442,9.645856 
	C364.142303,6.965570 365.438812,3.890760 367.000000,0.999999 
M368.458893,321.862274 
	C370.868042,318.015259 372.720978,314.057159 368.970062,310.039459 
	C362.717255,303.341827 356.466858,296.632507 349.965729,290.179718 
	C346.046295,286.289490 341.184753,287.098694 338.182343,291.791931 
	C334.238159,297.957245 330.724152,304.423859 326.444031,310.340515 
	C322.467865,315.837006 318.168030,321.256897 313.207611,325.841614 
	C307.730560,330.903839 300.894165,334.132996 293.107910,332.554138 
	C283.819153,330.670563 279.979126,323.426880 278.088104,315.107574 
	C271.004974,283.945801 275.754456,253.900421 287.468750,224.706314 
	C290.994934,215.918457 295.187134,207.262344 302.773010,201.046768 
	C307.264496,197.366608 312.568451,194.256531 318.265350,197.495789 
	C323.758820,200.619400 322.455933,206.616730 321.520111,211.577866 
	C319.796600,220.715256 317.406860,229.726624 315.310822,238.794235 
	C313.826813,245.214172 316.200592,248.427887 322.791351,248.470688 
	C337.620331,248.566986 352.450897,248.434875 367.279572,248.551270 
	C371.307281,248.582901 373.625885,246.946625 374.228088,243.013214 
	C375.760498,233.004150 377.912720,223.033096 378.604218,212.963562 
	C380.252075,188.967255 366.603546,165.248413 345.245453,156.242340 
	C322.228180,146.536621 298.722595,146.798965 276.016632,157.547882 
	C256.679138,166.702209 244.813065,183.668869 233.912903,201.129761 
	C221.371002,221.220520 214.626770,243.412811 212.186905,266.890869 
	C209.839386,289.480469 211.235825,311.635681 218.788208,333.392029 
	C237.824036,388.229126 294.922791,392.632263 328.703400,369.495087 
	C346.305084,357.439209 358.050232,340.767273 368.458893,321.862274 
z"/>
<path fill="#F7A40C" opacity="1.000000" stroke="none" 
	d="
M366.545898,0.999999 
	C365.438812,3.890760 364.142303,6.965570 362.278442,9.645856 
	C275.780853,134.032120 189.233429,258.383728 102.697884,382.743622 
	C101.654160,384.243561 100.690086,385.798920 99.844414,387.664215 
	C96.969406,388.000000 93.938812,388.000000 90.454102,388.000000 
	C90.854836,386.437408 91.572685,384.779541 92.584023,383.325836 
	C179.914810,257.798676 267.269867,132.288422 354.603210,6.763079 
	C355.819397,5.015022 356.782898,3.091210 357.432190,1.124714 
	C360.030609,1.000000 363.061188,1.000000 366.545898,0.999999 
z"/>
<path fill="#FBA70C" opacity="1.000000" stroke="none" 
	d="
M148.415375,20.627876 
	C155.889908,33.716549 159.146606,47.893421 161.887848,62.056839 
	C170.202362,105.016396 178.006943,148.074829 185.961105,191.103821 
	C188.108704,202.721542 190.169632,214.356934 192.103134,226.011963 
	C193.291519,233.175507 190.910370,235.814606 183.563629,235.829865 
	C168.231201,235.861725 152.898621,235.864380 137.566223,235.825760 
	C131.061310,235.809372 129.400284,234.264099 128.821411,227.667374 
	C127.816658,216.217590 126.906334,204.759567 125.934700,193.306824 
	C125.839409,192.183640 125.592880,191.073273 125.328529,189.399643 
	C115.005898,191.398041 104.923462,193.333511 94.848503,195.307053 
	C89.460152,196.362564 84.113411,197.672745 78.691513,198.497162 
	C75.897079,198.922073 74.799484,200.254120 74.229019,202.827469 
	C72.465256,210.783768 70.563675,218.710388 68.637711,226.629593 
	C66.875671,233.874771 65.319878,235.105804 57.974316,234.948853 
	C43.645973,234.642731 29.319387,234.254745 14.991942,233.906097 
	C6.365300,233.696182 3.938266,230.574768 6.323884,222.155991 
	C11.582091,203.599884 17.022043,185.095367 22.350811,166.559158 
	C37.226208,114.814819 58.251698,65.392899 79.383369,16.022413 
	C80.473625,13.475207 83.357056,10.392548 85.825821,9.960564 
	C97.428535,7.930322 109.143723,6.310979 120.884872,5.368181 
	C132.965012,4.398160 142.052414,9.943226 148.415375,20.627876 
M116.168747,129.253723 
	C114.049515,115.677986 111.930283,102.102257 109.811043,88.526520 
	C109.295265,88.591888 108.779488,88.657249 108.263710,88.722618 
	C103.092194,105.769875 97.920685,122.817139 92.796188,139.709412 
	C101.318771,139.709412 109.180893,139.709412 117.424698,139.709412 
	C116.989220,136.061340 116.636505,133.106613 116.168747,129.253723 
M164.701767,215.714310 
	C166.321182,218.573380 167.940582,221.432465 169.559998,224.291550 
	C170.234787,224.008133 170.909592,223.724716 171.584381,223.441299 
	C169.099136,210.367752 166.613892,197.294205 164.123367,184.192825 
	C162.608490,185.152405 161.129150,186.089462 159.625610,187.041855 
	C157.283951,182.634460 160.584015,181.942230 163.459503,181.089981 
	C159.054749,177.255615 156.768387,177.404984 152.085495,181.562744 
	C153.026459,183.611771 153.995422,185.721771 155.088898,188.102859 
	C147.146469,188.657974 150.173798,195.845123 150.548935,198.231339 
	C151.143372,202.012222 155.430206,205.547104 159.962036,204.503998 
	C161.615662,208.352798 163.038239,211.663849 164.701767,215.714310 
M96.160393,103.772270 
	C97.183693,101.314980 98.206993,98.857689 99.481110,95.798126 
	C93.481422,97.272606 93.839951,102.040306 92.356171,105.463089 
	C86.842445,118.182121 81.461395,130.959488 76.163254,143.769836 
	C75.664207,144.976456 76.096703,146.568359 76.096703,147.981384 
	C76.793449,148.139404 77.490196,148.297440 78.186951,148.455475 
	C84.126228,133.811737 90.065514,119.167999 96.160393,103.772270 
M152.240936,136.863403 
	C150.983292,135.771133 149.725662,134.678864 148.455490,133.575714 
	C149.604218,132.255493 150.827652,130.849426 152.051086,129.443359 
	C151.827805,128.991592 151.604523,128.539841 151.381241,128.088074 
	C148.922867,128.958527 146.464508,129.828979 144.140228,130.651947 
	C145.272919,135.474106 147.033905,138.143845 152.240936,136.863403 
M68.890007,182.193954 
	C69.379089,182.137466 69.868172,182.080978 70.357254,182.024490 
	C69.321808,180.359085 68.583130,178.290466 67.116463,177.210938 
	C66.456345,176.725067 64.343025,178.213547 62.889076,178.806198 
	C64.149719,180.000229 65.372009,181.240311 66.703163,182.349731 
	C66.971542,182.573410 67.652565,182.301956 68.890007,182.193954 
z"/>
<path fill="#FCA80C" opacity="1.000000" stroke="none" 
	d="
M368.272156,322.190735 
	C358.050232,340.767273 346.305084,357.439209 328.703400,369.495087 
	C294.922791,392.632263 237.824036,388.229126 218.788208,333.392029 
	C211.235825,311.635681 209.839386,289.480469 212.186905,266.890869 
	C214.626770,243.412811 221.371002,221.220520 233.912903,201.129761 
	C244.813065,183.668869 256.679138,166.702209 276.016632,157.547882 
	C298.722595,146.798965 322.228180,146.536621 345.245453,156.242340 
	C366.603546,165.248413 380.252075,188.967255 378.604218,212.963562 
	C377.912720,223.033096 375.760498,233.004150 374.228088,243.013214 
	C373.625885,246.946625 371.307281,248.582901 367.279572,248.551270 
	C352.450897,248.434875 337.620331,248.566986 322.791351,248.470688 
	C316.200592,248.427887 313.826813,245.214172 315.310822,238.794235 
	C317.406860,229.726624 319.796600,220.715256 321.520111,211.577866 
	C322.455933,206.616730 323.758820,200.619400 318.265350,197.495789 
	C312.568451,194.256531 307.264496,197.366608 302.773010,201.046768 
	C295.187134,207.262344 290.994934,215.918457 287.468750,224.706314 
	C275.754456,253.900421 271.004974,283.945801 278.088104,315.107574 
	C279.979126,323.426880 283.819153,330.670563 293.107910,332.554138 
	C300.894165,334.132996 307.730560,330.903839 313.207611,325.841614 
	C318.168030,321.256897 322.467865,315.837006 326.444031,310.340515 
	C330.724152,304.423859 334.238159,297.957245 338.182343,291.791931 
	C341.184753,287.098694 346.046295,286.289490 349.965729,290.179718 
	C356.466858,296.632507 362.717255,303.341827 368.970062,310.039459 
	C372.720978,314.057159 370.868042,318.015259 368.272156,322.190735 
M254.177765,214.825928 
	C253.256790,214.277222 252.335831,213.728531 251.414841,213.179840 
	C251.178711,213.586853 250.942596,213.993881 250.706482,214.400909 
	C251.768799,214.970154 252.831100,215.539398 253.742142,216.793839 
	C253.027771,218.152863 252.313400,219.511887 251.088089,221.842926 
	C253.551086,221.502243 254.859894,221.321198 256.168701,221.140167 
	C255.664810,219.206406 255.160919,217.272644 254.177765,214.825928 
M351.604584,206.268112 
	C349.989105,205.136414 348.373657,204.004700 346.758179,202.872986 
	C346.120514,204.220840 345.482849,205.568695 344.845184,206.916565 
	C346.766876,206.942612 348.688538,206.973312 350.610321,206.985779 
	C350.761261,206.986755 350.913055,206.860626 351.604584,206.268112 
z"/>
<path fill="#050400" opacity="1.000000" stroke="none" 
	d="
M116.226273,129.702805 
	C116.636505,133.106613 116.989220,136.061340 117.424698,139.709412 
	C109.180893,139.709412 101.318771,139.709412 92.796188,139.709412 
	C97.920685,122.817139 103.092194,105.769875 108.263710,88.722618 
	C108.779488,88.657249 109.295265,88.591888 109.811043,88.526520 
	C111.930283,102.102257 114.049515,115.677986 116.226273,129.702805 
z"/>
<path fill="#090600" opacity="1.000000" stroke="none" 
	d="
M164.581299,215.344604 
	C163.038239,211.663849 161.615662,208.352798 159.962036,204.503998 
	C155.430206,205.547104 151.143372,202.012222 150.548935,198.231339 
	C150.173798,195.845123 147.146469,188.657974 155.088898,188.102859 
	C153.995422,185.721771 153.026459,183.611771 152.085495,181.562744 
	C156.768387,177.404984 159.054749,177.255615 163.459503,181.089981 
	C160.584015,181.942230 157.283951,182.634460 159.625610,187.041855 
	C161.129150,186.089462 162.608490,185.152405 164.123367,184.192825 
	C166.613892,197.294205 169.099136,210.367752 171.584381,223.441299 
	C170.909592,223.724716 170.234787,224.008133 169.559998,224.291550 
	C167.940582,221.432465 166.321182,218.573380 164.581299,215.344604 
z"/>
<path fill="#130C01" opacity="1.000000" stroke="none" 
	d="
M96.082596,104.148270 
	C90.065514,119.167999 84.126228,133.811737 78.186951,148.455475 
	C77.490196,148.297440 76.793449,148.139404 76.096703,147.981384 
	C76.096703,146.568359 75.664207,144.976456 76.163254,143.769836 
	C81.461395,130.959488 86.842445,118.182121 92.356171,105.463089 
	C93.839951,102.040306 93.481422,97.272606 99.481110,95.798126 
	C98.206993,98.857689 97.183693,101.314980 96.082596,104.148270 
z"/>
<path fill="#191101" opacity="1.000000" stroke="none" 
	d="
M151.904617,137.005249 
	C147.033905,138.143845 145.272919,135.474106 144.140228,130.651947 
	C146.464508,129.828979 148.922867,128.958527 151.381241,128.088074 
	C151.604523,128.539841 151.827805,128.991592 152.051086,129.443359 
	C150.827652,130.849426 149.604218,132.255493 148.455490,133.575714 
	C149.725662,134.678864 150.983292,135.771133 151.904617,137.005249 
z"/>
<path fill="#0B0701" opacity="1.000000" stroke="none" 
	d="
M68.516678,182.226379 
	C67.652565,182.301956 66.971542,182.573410 66.703163,182.349731 
	C65.372009,181.240311 64.149719,180.000229 62.889076,178.806198 
	C64.343025,178.213547 66.456345,176.725067 67.116463,177.210938 
	C68.583130,178.290466 69.321808,180.359085 70.357254,182.024490 
	C69.868172,182.080978 69.379089,182.137466 68.516678,182.226379 
z"/>
<path fill="#160E01" opacity="1.000000" stroke="none" 
	d="
M351.334534,206.530853 
	C350.913055,206.860626 350.761261,206.986755 350.610321,206.985779 
	C348.688538,206.973312 346.766876,206.942612 344.845184,206.916565 
	C345.482849,205.568695 346.120514,204.220840 346.758179,202.872986 
	C348.373657,204.004700 349.989105,205.136414 351.334534,206.530853 
z"/>
<path fill="#2B1D02" opacity="1.000000" stroke="none" 
	d="
M254.657028,215.338882 
	C255.160919,217.272644 255.664810,219.206406 256.168701,221.140167 
	C254.859894,221.321198 253.551086,221.502243 251.088089,221.842926 
	C252.313400,219.511887 253.027771,218.152863 254.010284,216.260391 
	C254.404648,215.597595 254.530838,215.468231 254.657028,215.338882 
z"/>
<path fill="#2B1D02" opacity="1.000000" stroke="none" 
	d="
M254.085938,215.917786 
	C252.831100,215.539398 251.768799,214.970154 250.706482,214.400909 
	C250.942596,213.993881 251.178711,213.586853 251.414856,213.179840 
	C252.335831,213.728531 253.256790,214.277222 254.417389,215.082397 
	C254.530838,215.468231 254.404648,215.597595 254.085938,215.917786 
z"/>
</svg>